<?xml version="1.0" encoding="iso-8859-1"?>
<!-- Generator: Adobe Illustrator 19.0.0, SVG Export Plug-In . SVG Version: 6.00 Build 0)  -->
<svg version="1.1" id="Capa_1" xmlns="http://www.w3.org/2000/svg" xmlns:xlink="http://www.w3.org/1999/xlink" x="0px" y="0px"
	 viewBox="0 0 512 512" style="enable-background:new 0 0 512 512;" xml:space="preserve">
<path style="fill:#E5F9F6;" d="M375.484,504.496H197.003c-3.916,0-7.138-3.084-7.309-6.997L171.425,80.082
	c-0.182-4.162,3.143-7.636,7.309-7.636h215.018c4.166,0,7.492,3.474,7.309,7.636L382.793,497.5
	C382.622,501.412,379.401,504.496,375.484,504.496z"/>
<path style="fill:#D6E5E2;" d="M393.753,72.446h-47.751l-18.909,432.051h48.392c3.916,0,7.138-3.084,7.309-6.996l18.268-417.418
	C401.244,75.92,397.919,72.446,393.753,72.446z"/>
<path style="fill:#CDEAE0;" d="M172.516,105.018L189.693,497.5c0.171,3.913,3.393,6.997,7.309,6.997h178.482
	c3.916,0,7.138-3.084,7.309-6.997l17.177-392.482L172.516,105.018L172.516,105.018z"/>
<path style="fill:#BFD8CE;" d="M344.576,105.018l-17.483,399.478h48.392c1.713,0,3.294-0.59,4.544-1.582
	c0.357-0.283,0.688-0.599,0.986-0.944c0.149-0.172,0.291-0.352,0.424-0.537c0.266-0.372,0.498-0.77,0.692-1.189
	c0.097-0.21,0.184-0.425,0.261-0.645c0.154-0.44,0.267-0.9,0.335-1.375c0.034-0.238,0.057-0.479,0.067-0.723l17.177-392.482h-55.395
	V105.018z"/>
<path style="fill:#D7E0DC;" d="M286.243,471.182c-39.159,0-74.241-1.886-97.915-4.863l1.365,31.182
	c0.171,3.913,3.393,6.997,7.309,6.997h178.482c3.916,0,7.138-3.084,7.309-6.997l1.365-31.182
	C360.485,469.296,325.402,471.182,286.243,471.182z"/>
<path style="fill:#FDC74F;" d="M339.647,202.961c1.238-1.206,1.224-3.207-0.034-4.392c-28.248-26.608-72.717-26.456-100.783,0.884
	s-29.384,71.789-3.525,100.725c1.152,1.289,3.151,1.355,4.39,0.149L339.647,202.961z"/>
<path style="fill:#FFFFBB;" d="M327.835,214.467c-20.533-21.069-54.259-21.509-75.333-0.979s-21.52,54.255-0.996,75.333
	L327.835,214.467z"/>
<g>
	<path style="fill:#E5F9F6;" d="M192.351,173.833l8.204-42.618c0.322-1.671,1.937-2.764,3.607-2.443l42.618,8.204
		c1.671,0.322,2.764,1.937,2.443,3.607l-8.204,42.618c-0.322,1.671-1.937,2.764-3.607,2.443l-42.618-8.204
		C193.123,177.119,192.029,175.504,192.351,173.833z"/>
	<path style="fill:#E5F9F6;" d="M303.756,317.757l9.883-51.337c0.387-2.013,2.333-3.33,4.346-2.942l51.337,9.883
		c2.013,0.387,3.33,2.333,2.942,4.346l-9.883,51.337c-0.387,2.013-2.333,3.33-4.346,2.943l-51.337-9.883
		C304.686,321.715,303.369,319.769,303.756,317.757z"/>
	<path style="fill:#E5F9F6;" d="M200.657,429.82l7.727-40.138c0.303-1.573,1.824-2.604,3.398-2.301l40.138,7.727
		c1.574,0.303,2.604,1.824,2.301,3.398l-7.727,40.138c-0.303,1.573-1.824,2.604-3.398,2.301l-40.138-7.727
		C201.384,432.914,200.354,431.393,200.657,429.82z"/>
</g>
<g>
	<path style="fill:#77D057;" d="M253.15,91.377c15.509-22.205,14.411-61.451,13.732-72.727c-0.107-1.783-1.556-3.176-3.342-3.214
		c-11.293-0.238-50.552,0.197-72.135,16.561c-47.054,35.676-12.607,74.901-12.607,74.901S219.339,139.788,253.15,91.377z"/>
	<path style="fill:#77D057;" d="M194.271,35.254c-21.622-21.09-65.507-26.646-76.585-27.737c-1.481-0.146-2.82,0.855-3.101,2.316
		c-2.096,10.933-9.212,54.592,4.881,81.307c30.032,56.929,78.324,26.831,78.324,26.831S240.347,80.197,194.271,35.254z"/>
	<path style="fill:#77D057;" d="M349.373,368.852c-19.312-18.837-58.061-24.113-69.252-25.272c-1.77-0.183-3.373,1.015-3.7,2.764
		c-2.062,11.061-7.991,49.715,4.597,73.576c27.443,52.021,71.572,24.518,71.572,24.518S391.477,409.92,349.373,368.852z"/>
</g>
<path style="fill:#CBD1CF;" d="M328.584,470.413l-1.492,34.084h48.392c0.392,0,0.775-0.039,1.151-0.099
	c0.055-0.009,0.11-0.015,0.165-0.024c0.355-0.065,0.699-0.157,1.034-0.271c0.063-0.021,0.125-0.043,0.187-0.066
	c0.331-0.123,0.652-0.265,0.958-0.432c0.047-0.026,0.092-0.055,0.139-0.081c0.318-0.182,0.625-0.381,0.91-0.608
	c0.357-0.283,0.688-0.599,0.986-0.944c0.149-0.172,0.291-0.352,0.424-0.537c0.266-0.372,0.498-0.77,0.692-1.189
	c0.097-0.21,0.184-0.425,0.261-0.645c0.154-0.44,0.267-0.9,0.335-1.375c0.034-0.238,0.057-0.479,0.067-0.723l1.365-31.182
	C369.452,468.168,350.339,469.596,328.584,470.413z"/>
<path style="fill:#CDEAE0;" d="M369.322,273.36l-31.845-6.131l-2.639,60.29l23.198,4.466c2.012,0.387,3.958-0.93,4.345-2.942
	l9.883-51.337C372.651,275.693,371.334,273.747,369.322,273.36z"/>
<path style="fill:#6FC14D;" d="M333.509,357.889l-4.1,93.679c13.308-0.981,23.18-7.13,23.18-7.13s38.887-34.518-3.216-75.586
	C344.926,364.514,339.443,360.904,333.509,357.889z"/>
<path d="M264.406,236.461c1.619,1.662,3.819,2.412,5.964,2.244c1.687-0.132,3.339-0.832,4.645-2.105
	c2.968-2.891,3.031-7.641,0.139-10.609l-2.633-2.703c-2.892-2.969-7.642-3.03-10.609-0.139c-2.968,2.891-3.031,7.641-0.139,10.609
	L264.406,236.461z"/>
<path d="M287.929,231.447c0.233,0.003,0.465-0.005,0.693-0.022c3.823-0.299,6.856-3.472,6.907-7.381l0.049-3.773
	c0.054-4.143-3.26-7.546-7.403-7.6c-4.14-0.051-7.545,3.261-7.6,7.403l-0.049,3.772C280.471,227.99,283.786,231.393,287.929,231.447
	z"/>
<path d="M250.75,249.128c-0.054,4.143,3.26,7.546,7.403,7.6l3.773,0.049c0.234,0.003,0.465-0.005,0.693-0.022
	c3.823-0.299,6.856-3.472,6.907-7.381c0.054-4.143-3.26-7.546-7.403-7.6l-3.773-0.049C254.2,241.662,250.803,244.985,250.75,249.128
	z"/>
<path d="M404.457,69.514c-2.781-2.905-6.682-4.571-10.704-4.571H271.418c4.008-19.444,3.417-39.039,2.953-46.743l0,0
	c-0.345-5.73-4.934-10.142-10.673-10.263c-11.376-0.24-48.608,0.24-72.509,15.128c-24.245-16.974-61.035-21.858-72.77-23.013
	c-5.362-0.532-10.186,3.071-11.202,8.371c-2.493,13.005-9.455,57.656,5.614,86.219c10.51,19.922,24.384,32.333,41.237,36.89
	c4.177,1.129,8.261,1.687,12.18,1.843l15.951,364.454c0.348,7.946,6.851,14.171,14.805,14.171h178.482
	c7.954,0,14.457-6.225,14.804-14.171l18.267-417.42C408.733,76.391,407.239,72.42,404.457,69.514z M259.688,33.612
	c-0.306,16.473-2.823,34.289-8.998,47.09c-0.044,0.092-0.088,0.185-0.133,0.276c-0.205,0.419-0.416,0.831-0.63,1.239
	c-0.124,0.237-0.25,0.471-0.376,0.704c-0.172,0.316-0.344,0.63-0.521,0.939c-0.192,0.334-0.388,0.66-0.584,0.983
	c-0.132,0.218-0.262,0.439-0.397,0.653c-0.344,0.544-0.692,1.076-1.049,1.587c-0.546,0.782-1.098,1.537-1.652,2.279
	c-0.141,0.189-0.283,0.377-0.424,0.564c-0.547,0.72-1.096,1.428-1.651,2.11c-0.017,0.021-0.034,0.042-0.051,0.062
	c-0.554,0.68-1.113,1.334-1.674,1.976c-0.152,0.173-0.304,0.345-0.456,0.516c-0.553,0.62-1.108,1.227-1.667,1.81
	c-0.034,0.035-0.067,0.07-0.101,0.105c-0.561,0.582-1.128,1.14-1.696,1.685c-0.161,0.155-0.323,0.308-0.485,0.46
	c-0.559,0.524-1.121,1.036-1.687,1.525c-0.049,0.042-0.098,0.085-0.146,0.127c-0.57,0.489-1.144,0.953-1.721,1.406
	c-0.171,0.134-0.342,0.267-0.513,0.398c-0.567,0.434-1.137,0.855-1.711,1.255c-0.06,0.042-0.12,0.084-0.18,0.125
	c-0.581,0.4-1.166,0.777-1.754,1.143c-0.178,0.11-0.356,0.219-0.534,0.326c-0.58,0.348-1.161,0.685-1.747,0.999
	c-0.065,0.035-0.129,0.07-0.193,0.104c-0.597,0.316-1.198,0.61-1.802,0.891c-0.181,0.084-0.363,0.167-0.545,0.249
	c-0.599,0.268-1.2,0.523-1.805,0.756c-0.057,0.022-0.114,0.045-0.171,0.066c-0.62,0.235-1.245,0.447-1.871,0.646
	c-0.182,0.058-0.364,0.114-0.547,0.169c-0.623,0.187-1.247,0.361-1.876,0.513c-0.044,0.01-0.087,0.022-0.131,0.032
	c-0.647,0.153-1.299,0.281-1.952,0.396c-0.18,0.032-0.361,0.062-0.542,0.091c-0.648,0.104-1.298,0.195-1.952,0.263
	c-0.021,0.002-0.043,0.006-0.064,0.008c0.01-0.016,0.019-0.033,0.029-0.048c0.814-1.306,1.619-2.697,2.399-4.168
	c0.06-0.113,0.119-0.226,0.178-0.339c0.363-0.693,0.719-1.4,1.067-2.128c0.019-0.04,0.039-0.078,0.057-0.117
	c0.162-0.34,0.318-0.688,0.476-1.035l0.28,0.064c0.564,0.129,1.127,0.191,1.682,0.191c3.42,0,6.51-2.354,7.306-5.829
	c0.858-3.748-1.256-7.479-4.792-8.736c0.053-0.302,0.108-0.604,0.156-0.904c0.04-0.251,0.072-0.507,0.109-0.76
	c0.073-0.503,0.143-1.006,0.201-1.506c0.026-0.227,0.047-0.457,0.07-0.685c0.055-0.535,0.105-1.069,0.144-1.6
	c0.017-0.227,0.029-0.456,0.042-0.684c0.032-0.538,0.058-1.074,0.074-1.608c0.004-0.12,0.013-0.236,0.016-0.356
	c0.002-0.097-0.004-0.193-0.002-0.29c0.009-0.528,0.011-1.053,0.004-1.576l10.14,2.322c0.564,0.129,1.127,0.191,1.682,0.191
	c3.42,0,6.51-2.354,7.306-5.829c0.925-4.039-1.599-8.063-5.638-8.988l-6.452-1.478l6.961-7.239l7.967,1.824
	c0.563,0.129,1.126,0.191,1.681,0.191c3.42,0,6.51-2.354,7.306-5.83c0.864-3.772-1.282-7.529-4.859-8.763L259.688,33.612z
	 M247.267,208.114c-22.182,21.608-24.282,56.165-6.025,80.232l-3.33,3.244c-20.218-26.092-17.875-63.356,6.154-86.764
	c12.726-12.397,29.176-18.611,45.633-18.611c14.617,0,29.242,4.904,41.262,14.733l-3.33,3.244
	C304.049,185.312,269.449,186.506,247.267,208.114z M316.785,214.759l-64.698,63.024c-12.551-18.038-10.596-43.094,5.65-58.919
	c8.885-8.656,20.414-12.964,31.936-12.964C299.22,205.899,308.763,208.86,316.785,214.759z M241.02,143.508l-6.533,33.933
	l-33.933-6.532l6.532-33.934L241.02,143.508z M248.873,23.21l-10.401,10.815c-1.371-3.528-5.207-5.526-8.948-4.516
	c-3.999,1.082-6.365,5.201-5.283,9.201l2.135,7.893l-6.96,7.237l-1.728-6.39c-0.936-3.462-4.146-5.693-7.588-5.532
	c-1.7-2.299-3.581-4.575-5.609-6.833c-0.463-0.518-0.927-1.031-1.392-1.531C215.584,27.211,232.827,24.136,248.873,23.21z
	 M186.106,38.017c0.031,0.026,0.057,0.056,0.088,0.082c0.543,0.451,1.038,0.876,1.496,1.282c0.455,0.41,0.909,0.821,1.342,1.244
	c0.027,0.026,0.051,0.053,0.078,0.079c0.86,0.84,1.686,1.682,2.488,2.526c0.289,0.304,0.562,0.609,0.843,0.913
	c0.526,0.569,1.047,1.138,1.547,1.709c0.314,0.358,0.617,0.717,0.92,1.075c0.441,0.52,0.872,1.041,1.29,1.562
	c0.303,0.378,0.603,0.755,0.895,1.133c0.395,0.512,0.774,1.024,1.148,1.537c0.274,0.376,0.553,0.752,0.816,1.129
	c0.389,0.557,0.755,1.114,1.119,1.672c0.214,0.328,0.44,0.655,0.646,0.982c0.532,0.85,1.036,1.701,1.511,2.553
	c0.184,0.33,0.346,0.66,0.522,0.99c0.297,0.56,0.593,1.12,0.865,1.68c0.183,0.376,0.35,0.752,0.521,1.128
	c0.238,0.523,0.471,1.046,0.688,1.57c0.156,0.377,0.304,0.754,0.449,1.131c0.207,0.539,0.401,1.078,0.585,1.618
	c0.121,0.353,0.242,0.706,0.353,1.06c0.191,0.61,0.361,1.22,0.523,1.831c0.074,0.281,0.158,0.561,0.226,0.841
	c0.439,1.808,0.751,3.62,0.934,5.433c0.024,0.233,0.034,0.466,0.053,0.699c0.055,0.671,0.098,1.342,0.119,2.013
	c0.009,0.303,0.009,0.607,0.011,0.91c0.005,0.717,0,1.434-0.035,2.151c-0.005,0.091-0.006,0.184-0.011,0.275
	c-0.047,0.828-0.128,1.657-0.228,2.486c-0.023,0.189-0.044,0.379-0.07,0.567c-0.102,0.752-0.231,1.503-0.377,2.255
	c-0.057,0.292-0.114,0.584-0.177,0.873c-0.06,0.278-0.128,0.551-0.193,0.825c-0.171,0.716-0.355,1.423-0.559,2.115
	c-0.015,0.051-0.03,0.102-0.045,0.154c-1.974,6.627-5.317,12.12-8.205,15.994l-7.703-10.31l8.688-21.233
	c1.569-3.835-0.268-8.216-4.102-9.785c-3.835-1.569-8.216,0.268-9.785,4.102l-5.276,12.894l-8.432-11.286l6.597-16.121
	c1.569-3.835-0.268-8.216-4.102-9.785s-8.215,0.269-9.785,4.102l-3.185,7.782l-7.495-10.032l3.519-8.6
	c1.569-3.835-0.268-8.216-4.102-9.785c-3.836-1.569-8.216,0.268-9.785,4.102l-0.107,0.261l-11.464-15.345
	C147.615,19.849,171.401,25.85,186.106,38.017z M172.399,118.268c-4.486,0.375-9.387,0.138-14.415-1.222
	c-12.668-3.424-23.394-13.318-31.882-29.406c-9.313-17.653-8.304-44.501-6.36-61.602l11.465,15.347l-0.284,0.029
	c-4.122,0.418-7.126,4.098-6.709,8.22c0.391,3.866,3.652,6.747,7.456,6.747c0.253,0,0.508-0.013,0.764-0.039l9.248-0.936
	l7.494,10.03l-8.366,0.847c-4.122,0.418-7.126,4.098-6.709,8.22c0.391,3.866,3.652,6.747,7.455,6.747
	c0.253,0,0.508-0.013,0.765-0.039l17.33-1.755l8.295,11.103l-13.418,1.359c-4.122,0.418-7.126,4.098-6.709,8.22
	c0.391,3.866,3.652,6.747,7.456,6.747c0.253,0,0.508-0.013,0.764-0.039l22.382-2.266l7.843,10.498
	c-3.615,1.337-8.29,2.657-13.533,3.141C172.619,118.231,172.51,118.252,172.399,118.268z M375.306,496.994H197.181l-0.973-22.228
	c24.199,2.504,56.359,3.918,90.036,3.918s65.836-1.414,90.035-3.918L375.306,496.994z M392.789,97.516h-84.398
	c-4.143,0-7.502,3.359-7.502,7.503c0,4.143,3.359,7.502,7.502,7.502h83.741l-15.19,347.086c-23.893,2.599-56.451,4.072-90.699,4.072
	s-66.806-1.473-90.699-4.072l-1.053-24.071c1.456,2.536,3.958,4.453,7.048,5.048l40.139,7.727c0.661,0.128,1.32,0.189,1.97,0.189
	c4.886,0,9.255-3.466,10.212-8.438l7.726-40.136c0.527-2.729-0.042-5.5-1.601-7.802c-1.558-2.301-3.918-3.857-6.648-4.383
	l-40.139-7.727c-5.633-1.087-11.098,2.617-12.182,8.249l-7.003,36.373L181.21,132.103c4.83-0.993,9.042-2.409,12.379-3.763
	c-0.163,0.471-0.305,0.952-0.402,1.455l-8.204,42.617c-0.535,2.776,0.044,5.595,1.629,7.936c1.585,2.341,3.987,3.924,6.762,4.458
	l41.584,8.006c-0.454,0.423-0.918,0.831-1.365,1.266c-30.928,30.128-32.634,78.928-3.885,111.098
	c1.904,2.131,4.636,3.41,7.494,3.509c0.12,0.004,0.24,0.006,0.36,0.006c2.735,0,5.402-1.079,7.365-2.991l46.124-44.931l42.017-40.93
	c0.001-0.001,0.002-0.002,0.003-0.003l11.808-11.503c2.049-1.996,3.21-4.782,3.186-7.644c-0.024-2.86-1.231-5.624-3.311-7.584
	c-26.636-25.089-65.797-28.583-95.947-10.692l7.78-40.413c0.535-2.776-0.044-5.594-1.629-7.935c-1.585-2.34-3.986-3.924-6.762-4.458
	l-27.667-5.326c0.24-0.05,0.481-0.107,0.722-0.161c0.177-0.04,0.354-0.077,0.532-0.119c0.561-0.133,1.125-0.274,1.69-0.43
	c0.045-0.012,0.089-0.027,0.134-0.039c0.522-0.145,1.046-0.3,1.572-0.465c0.184-0.058,0.368-0.12,0.552-0.18
	c0.392-0.128,0.784-0.259,1.177-0.398c0.209-0.074,0.419-0.151,0.629-0.228c0.379-0.14,0.758-0.285,1.138-0.436
	c0.206-0.082,0.413-0.163,0.619-0.248c0.422-0.174,0.845-0.357,1.269-0.544c0.159-0.07,0.317-0.137,0.477-0.209
	c0.582-0.265,1.165-0.542,1.749-0.833c0.102-0.051,0.203-0.107,0.305-0.158c0.482-0.245,0.964-0.497,1.448-0.761
	c0.195-0.107,0.39-0.219,0.586-0.328c0.396-0.223,0.792-0.45,1.189-0.686c0.212-0.126,0.424-0.254,0.636-0.384
	c0.394-0.241,0.788-0.49,1.182-0.745c0.201-0.13,0.401-0.257,0.602-0.39c0.461-0.306,0.922-0.623,1.383-0.948
	c0.129-0.091,0.258-0.176,0.386-0.269c0.589-0.422,1.178-0.859,1.766-1.313c0.142-0.109,0.283-0.226,0.425-0.337
	c0.447-0.351,0.895-0.708,1.342-1.078c0.03-0.025,0.06-0.048,0.091-0.073h29.35c4.143,0,7.502-3.359,7.502-7.502
	s-3.359-7.503-7.502-7.503h-15.5c0.441-0.604,0.882-1.214,1.32-1.842c0.473-0.677,0.932-1.38,1.385-2.095
	c0.12-0.19,0.238-0.383,0.356-0.575c0.359-0.581,0.711-1.174,1.056-1.779c0.08-0.14,0.161-0.279,0.24-0.42
	c1.846-3.29,3.5-6.913,4.942-10.856h126.277L392.789,97.516z M208.893,426.72l5.987-31.102l31.102,5.987l-5.987,31.102
	L208.893,426.72z"/>
<path d="M310.995,257.836c-2.48,1.679-4.158,4.224-4.724,7.165l-9.883,51.337c0,0,0,0,0,0.001
	c-1.168,6.072,2.821,11.962,8.892,13.13l51.338,9.883c0.713,0.137,1.422,0.203,2.123,0.203c5.266,0,9.976-3.737,11.007-9.095
	l9.883-51.337c0.566-2.941-0.047-5.927-1.726-8.407c-1.68-2.48-4.225-4.158-7.165-4.724l-51.336-9.883
	C316.46,255.542,313.475,256.156,310.995,257.836z M364.18,280.01l-8.45,43.891l-43.89-8.45l8.45-43.89L364.18,280.01z"/>
<path d="M280.895,336.118c-5.608-0.578-10.817,3.306-11.849,8.851c-2.208,11.845-8.35,52.508,5.336,78.452
	c9.691,18.37,22.504,29.82,38.085,34.032c4.624,1.25,9.131,1.752,13.393,1.752c16.978,0,30.02-7.976,30.698-8.399
	c0.358-0.223,0.697-0.476,1.013-0.757c0.747-0.663,18.315-16.526,18.876-40.396c0.38-16.136-6.967-31.67-21.835-46.172
	C333.612,342.999,292.878,337.358,280.895,336.118z M316.383,442.967c-11.396-3.081-21.062-12.012-28.73-26.548
	c-7.205-13.657-7.977-35.094-5.945-54.322l8.873,11.876c-3.68,0.798-6.255,4.248-5.866,8.083c0.392,3.866,3.652,6.747,7.455,6.747
	c0.253,0,0.508-0.013,0.765-0.039l8.085-0.819l5.945,7.957l-6.508,0.659c-4.122,0.418-7.126,4.098-6.709,8.22
	c0.392,3.866,3.652,6.747,7.455,6.747c0.253,0,0.508-0.013,0.765-0.039l15.472-1.567l6.677,8.937l-11.124,1.126
	c-4.122,0.418-7.126,4.098-6.709,8.22c0.391,3.866,3.652,6.747,7.455,6.747c0.253,0,0.508-0.013,0.765-0.039l20.088-2.034
	l6.446,8.628C334.969,443.651,325.926,445.548,316.383,442.967z M353.033,432.498l-6.296-8.428l7.801-19.063
	c1.569-3.835-0.268-8.216-4.102-9.785c-3.835-1.569-8.215,0.268-9.785,4.102l-4.388,10.725l-6.802-9.105l5.89-14.392
	c1.569-3.835-0.268-8.216-4.102-9.785c-3.835-1.569-8.215,0.268-9.785,4.102l-2.477,6.054l-5.945-7.958l3.077-7.519
	c1.569-3.835-0.267-8.216-4.102-9.785c-3.567-1.459-7.603,0.031-9.413,3.332l-8.873-11.877
	c19.014,3.504,39.352,10.323,50.407,21.106c11.717,11.429,17.543,23.184,17.314,34.937
	C361.257,419.008,356.83,427.226,353.033,432.498z"/>
<g>
</g>
<g>
</g>
<g>
</g>
<g>
</g>
<g>
</g>
<g>
</g>
<g>
</g>
<g>
</g>
<g>
</g>
<g>
</g>
<g>
</g>
<g>
</g>
<g>
</g>
<g>
</g>
<g>
</g>
</svg>
