<?xml version="1.0"?>
<svg xmlns="http://www.w3.org/2000/svg" id="icon" viewBox="0 0 128 128" width="512" height="512"><path d="M23.34,41.61a8.6,8.6,0,0,0,2.69,6.27,8.485,8.485,0,0,1-4.56-7.53,8.421,8.421,0,0,0,1.9.74C23.36,41.26,23.34,41.43,23.34,41.61Z" fill="#e1e6e9"/><rect x="27.143" y="31.561" width="69.502" height="91.423" fill="#ffc943"/><path d="M96.646,123.984h-69.5a1,1,0,0,1-1-1V31.562a1,1,0,0,1,1-1h69.5a1,1,0,0,1,1,1v91.422A1,1,0,0,1,96.646,123.984Zm-68.5-2h67.5V32.562h-67.5Z" fill="#2f3a5a"/><path d="M90.936,31.565v77.5a4.006,4.006,0,0,1-4.012,4.012h-7.8V38.8H68.877v74.27H54.911V38.8H44.668v74.27h-7.8a4.006,4.006,0,0,1-4.012-4.012v-77.5Z" fill="#f7b521"/><rect x="22.627" y="117.475" width="78.534" height="9.525" rx="2.475" ry="2.475" fill="#e1e6e9"/><path d="M98.686,128H25.1a3.48,3.48,0,0,1-3.476-3.475V119.95a3.48,3.48,0,0,1,3.476-3.475H98.686a3.48,3.48,0,0,1,3.476,3.475v4.575A3.48,3.48,0,0,1,98.686,128ZM25.1,118.475a1.477,1.477,0,0,0-1.476,1.475v4.575A1.477,1.477,0,0,0,25.1,126H98.686a1.477,1.477,0,0,0,1.476-1.475V119.95a1.477,1.477,0,0,0-1.476-1.475Z" fill="#2f3a5a"/><path d="M108.7,109.178H96.645v-6.937h11.7V62.006h-11.7V55.069H108.7a6.585,6.585,0,0,1,6.585,6.585v40.938A6.585,6.585,0,0,1,108.7,109.178Z" fill="#d9e2e9"/><path d="M108.7,110.178H96.645a1,1,0,0,1-1-1v-6.937a1,1,0,0,1,1-1h10.7V63.006h-10.7a1,1,0,0,1-1-1V55.069a1,1,0,0,1,1-1H108.7a7.594,7.594,0,0,1,7.585,7.585v40.938A7.594,7.594,0,0,1,108.7,110.178Zm-11.051-2H108.7a5.592,5.592,0,0,0,5.585-5.585V61.655a5.592,5.592,0,0,0-5.585-5.585H97.645v4.937h10.7a1,1,0,0,1,1,1v40.236a1,1,0,0,1-1,1h-10.7Z" fill="#2f3a5a"/><path d="M104.095,33.345a7.572,7.572,0,0,0-6-12.2c-.247,0-.492.014-.733.037A10.711,10.711,0,0,0,82.068,9.8,13.257,13.257,0,0,0,58.892,6.415,10.713,10.713,0,0,0,41.44,10.853a10.667,10.667,0,0,0-16.926,10.68,9.848,9.848,0,0,0-4.344,19.2c-.013.2-.037.4-.037.606a10.006,10.006,0,0,0,17.844,6.225A10.713,10.713,0,0,0,55.333,45a10.716,10.716,0,0,0,17.215.476,10,10,0,0,0,17.327,1.576,10.006,10.006,0,1,0,14.22-13.71Z" fill="#e1e6e9"/><path d="M18,39.9a9.494,9.494,0,0,0,2.173.832c-.011.208-.035.4-.035.613v.127A10.313,10.313,0,0,1,18,39.9Z" fill="#e1e6e9"/><path d="M98.092,52.355a11.019,11.019,0,0,1-8.217-3.689A11,11,0,0,1,72.345,47.2a11.712,11.712,0,0,1-16.884-.447,11.711,11.711,0,0,1-17.423,2.256,11.006,11.006,0,0,1-18.9-7.537,10.847,10.847,0,0,1,3.438-21.137q.376,0,.755.026c-.03-.318-.045-.624-.045-.926A11.748,11.748,0,0,1,35.017,7.7,11.6,11.6,0,0,1,40.97,9.336,11.711,11.711,0,0,1,58.752,4.988,14.252,14.252,0,0,1,82.611,8.477,11.558,11.558,0,0,1,86.778,7.7,11.748,11.748,0,0,1,98.513,19.439q0,.351-.025.716a8.592,8.592,0,0,1,8.186,8.572,8.479,8.479,0,0,1-1.235,4.426,10.9,10.9,0,0,1,3.666,8.19A11.024,11.024,0,0,1,98.092,52.355Zm-8.217-6.3a1,1,0,0,1,.82.429,9.006,9.006,0,1,0,12.8-12.339,1,1,0,0,1-.191-1.41,6.513,6.513,0,0,0,1.37-4.007,6.588,6.588,0,0,0-6.581-6.581c-.215,0-.428.013-.639.033a.989.989,0,0,1-.826-.313,1,1,0,0,1-.255-.845A9.711,9.711,0,0,0,82.507,10.7a1,1,0,0,1-1.381-.561A12.305,12.305,0,0,0,69.576,2,12.173,12.173,0,0,0,59.7,7.009a1,1,0,0,1-1.484.14,9.714,9.714,0,0,0-15.825,4.024,1,1,0,0,1-1.547.48A9.646,9.646,0,0,0,35.017,9.7a9.746,9.746,0,0,0-9.734,9.735,9.578,9.578,0,0,0,.212,1.9,1,1,0,0,1-1.177,1.176,8.852,8.852,0,0,0-10.6,8.679,8.834,8.834,0,0,0,6.693,8.576,1,1,0,0,1,.755,1.033l-.017.214c-.009.109-.019.218-.019.329a9.007,9.007,0,0,0,16.063,5.6,1,1,0,0,1,.738-.376,1.008,1.008,0,0,1,.769.31,9.713,9.713,0,0,0,15.737-2.327A1,1,0,0,1,55.26,44a1.011,1.011,0,0,1,.891.423,9.717,9.717,0,0,0,15.612.432,1,1,0,0,1,1.7.205,9,9,0,0,0,15.6,1.419A1,1,0,0,1,89.875,46.055Z" fill="#2f3a5a"/><path d="M55.693,21.981a7.987,7.987,0,0,1,15.56,1.454" fill="#d9e2e9"/><path d="M71.253,24.436a1,1,0,0,1-.992-.884,6.987,6.987,0,0,0-13.612-1.272,1,1,0,0,1-1.91-.595A8.988,8.988,0,0,1,72.247,23.32a1,1,0,0,1-.877,1.109A.965.965,0,0,1,71.253,24.436Z" fill="#2f3a5a"/><path d="M77.282,33.274a7.987,7.987,0,0,1,15.621.458" fill="#d9e2e9"/><path d="M92.9,34.732a1,1,0,0,1-.982-.821,6.988,6.988,0,0,0-13.666-.4,1,1,0,0,1-1.943-.471,8.987,8.987,0,0,1,17.576.514,1,1,0,0,1-.8,1.163A1.024,1.024,0,0,1,92.9,34.732Z" fill="#2f3a5a"/><path d="M30.212,34.443a7.987,7.987,0,0,1,14.9-3.993" fill="#d9e2e9"/><path d="M30.212,35.443a1,1,0,0,1-1-1A8.987,8.987,0,0,1,45.98,29.949a1,1,0,1,1-1.73,1,6.987,6.987,0,0,0-13.038,3.492A1,1,0,0,1,30.212,35.443Z" fill="#2f3a5a"/></svg>
